<svg width="30" height="30" viewBox="0 0 30 30" fill="none" xmlns="http://www.w3.org/2000/svg">
<path d="M10 11.25C9.64584 11.25 9.34917 11.13 9.11 10.89C8.87084 10.65 8.75084 10.3533 8.75 10C8.74917 9.64667 8.86917 9.35 9.11 9.11C9.35084 8.87 9.6475 8.75 10 8.75H25C25.3542 8.75 25.6513 8.87 25.8913 9.11C26.1313 9.35 26.2508 9.64667 26.25 10C26.2492 10.3533 26.1292 10.6504 25.89 10.8913C25.6508 11.1321 25.3542 11.2517 25 11.25H10ZM10 16.25C9.64584 16.25 9.34917 16.13 9.11 15.89C8.87084 15.65 8.75084 15.3533 8.75 15C8.74917 14.6467 8.86917 14.35 9.11 14.11C9.35084 13.87 9.6475 13.75 10 13.75H25C25.3542 13.75 25.6513 13.87 25.8913 14.11C26.1313 14.35 26.2508 14.6467 26.25 15C26.2492 15.3533 26.1292 15.6504 25.89 15.8913C25.6508 16.1321 25.3542 16.2517 25 16.25H10ZM10 21.25C9.64584 21.25 9.34917 21.13 9.11 20.89C8.87084 20.65 8.75084 20.3533 8.75 20C8.74917 19.6467 8.86917 19.35 9.11 19.11C9.35084 18.87 9.6475 18.75 10 18.75H25C25.3542 18.75 25.6513 18.87 25.8913 19.11C26.1313 19.35 26.2508 19.6467 26.25 20C26.2492 20.3533 26.1292 20.6504 25.89 20.8912C25.6508 21.1321 25.3542 21.2517 25 21.25H10ZM5 11.25C4.64584 11.25 4.34917 11.13 4.11 10.89C3.87084 10.65 3.75084 10.3533 3.75 10C3.74917 9.64667 3.86917 9.35 4.11 9.11C4.35084 8.87 4.6475 8.75 5 8.75C5.3525 8.75 5.64959 8.87 5.89125 9.11C6.13292 9.35 6.2525 9.64667 6.25 10C6.2475 10.3533 6.1275 10.6504 5.89 10.8913C5.6525 11.1321 5.35584 11.2517 5 11.25ZM5 16.25C4.64584 16.25 4.34917 16.13 4.11 15.89C3.87084 15.65 3.75084 15.3533 3.75 15C3.74917 14.6467 3.86917 14.35 4.11 14.11C4.35084 13.87 4.6475 13.75 5 13.75C5.3525 13.75 5.64959 13.87 5.89125 14.11C6.13292 14.35 6.2525 14.6467 6.25 15C6.2475 15.3533 6.1275 15.6504 5.89 15.8913C5.6525 16.1321 5.35584 16.2517 5 16.25ZM5 21.25C4.64584 21.25 4.34917 21.13 4.11 20.89C3.87084 20.65 3.75084 20.3533 3.75 20C3.74917 19.6467 3.86917 19.35 4.11 19.11C4.35084 18.87 4.6475 18.75 5 18.75C5.3525 18.75 5.64959 18.87 5.89125 19.11C6.13292 19.35 6.2525 19.6467 6.25 20C6.2475 20.3533 6.1275 20.6504 5.89 20.8912C5.6525 21.1321 5.35584 21.2517 5 21.25Z" fill="#1E90FF"/>
</svg>
