<svg width="44" height="44" viewBox="0 0 44 44" fill="none" xmlns="http://www.w3.org/2000/svg">
<circle cx="22" cy="22" r="22" fill="#F4A376"/>
<path d="M30.5 13V11H12.5V13H9V34.5H11V15H12.5V17H30.5V15H32V34.5H34V13H30.5ZM30.026 24.5L26.7635 18.9375C26.634 18.697 26.3085 18.5 26.0405 18.5H16.959C16.691 18.5 16.3655 18.697 16.2365 18.9375L12.9745 24.5C12.4385 24.5 12 24.95 12 25.5V30.5C12 31.05 12.4385 31.5 12.9745 31.5H14V33C14 33.825 14.6065 34.5 15.41 34.5H15.8975C16.701 34.5 17.5 33.825 17.5 33V31.5H25.5V33C25.5 33.825 26.2985 34.5 27.1025 34.5H27.59C28.3935 34.5 29 33.825 29 33V31.5H30.026C30.5615 31.5 31 31.05 31 30.5V25.5C31 24.95 30.5615 24.5 30.026 24.5ZM14.6795 28.5C14.007 28.5 13.4615 27.9405 13.4615 27.25C13.4615 26.5595 14.007 26 14.6795 26C15.3525 26 15.8975 26.5595 15.8975 27.25C15.8975 27.9405 15.3525 28.5 14.6795 28.5ZM15.41 24.5L17.628 20.447C17.748 20.201 18.0655 20 18.333 20H24.6665C24.9345 20 25.252 20.201 25.3715 20.447L27.59 24.5H15.41ZM28.3205 28.5C27.648 28.5 27.1025 27.9405 27.1025 27.25C27.1025 26.5595 27.648 26 28.3205 26C28.9935 26 29.539 26.5595 29.539 27.25C29.539 27.9405 28.993 28.5 28.3205 28.5Z" fill="white"/>
</svg>
