<svg width="60" height="60" viewBox="0 0 60 60" fill="none" xmlns="http://www.w3.org/2000/svg">
<rect width="60" height="60" rx="10" fill="#1E90FF"/>
<path d="M30.5 13C20.834 13 13 20.2734 13 29.25C13 33.125 14.4629 36.6719 16.8965 39.4609C16.042 43.3984 13.1846 46.9062 13.1504 46.9453C13 47.125 12.959 47.3906 13.0479 47.625C13.1367 47.8594 13.3281 48 13.5469 48C18.0791 48 21.4766 45.5156 23.1582 43.9844C25.3936 44.9453 27.875 45.5 30.5 45.5C40.166 45.5 48 38.2266 48 29.25C48 20.2734 40.166 13 30.5 13ZM21.75 31.75C20.54 31.75 19.5625 30.6328 19.5625 29.25C19.5625 27.8672 20.54 26.75 21.75 26.75C22.96 26.75 23.9375 27.8672 23.9375 29.25C23.9375 30.6328 22.96 31.75 21.75 31.75ZM30.5 31.75C29.29 31.75 28.3125 30.6328 28.3125 29.25C28.3125 27.8672 29.29 26.75 30.5 26.75C31.71 26.75 32.6875 27.8672 32.6875 29.25C32.6875 30.6328 31.71 31.75 30.5 31.75ZM39.25 31.75C38.04 31.75 37.0625 30.6328 37.0625 29.25C37.0625 27.8672 38.04 26.75 39.25 26.75C40.46 26.75 41.4375 27.8672 41.4375 29.25C41.4375 30.6328 40.46 31.75 39.25 31.75Z" fill="white"/>
</svg>
