<svg width="20" height="20" viewBox="0 0 20 20" fill="none" xmlns="http://www.w3.org/2000/svg">
<path d="M7.91663 11.6666C9.29734 11.6666 10.4166 12.7859 10.4166 14.1666C10.4166 15.5473 9.29734 16.6666 7.91663 16.6666C6.53591 16.6666 5.41663 15.5473 5.41663 14.1666C5.41663 12.7859 6.53591 11.6666 7.91663 11.6666Z" stroke="black" stroke-width="1.5"/>
<path d="M12.0834 3.33332C10.7027 3.33332 9.58337 4.45261 9.58337 5.83332C9.58337 7.21403 10.7027 8.33332 12.0834 8.33332C13.4641 8.33332 14.5834 7.21403 14.5834 5.83332C14.5834 4.45261 13.4641 3.33332 12.0834 3.33332Z" stroke="black" stroke-width="1.5"/>
<path d="M9.16669 5.83332L5.00004 5.83331M2.49998 5.83332L1.66663 5.83332" stroke="black" stroke-width="1.5" stroke-linecap="round"/>
<path d="M10.8333 14.1667L14.9999 14.1667M17.5 14.1667L18.3333 14.1667" stroke="black" stroke-width="1.5" stroke-linecap="round"/>
<path d="M1.66663 14.1667L4.99996 14.1667" stroke="black" stroke-width="1.5" stroke-linecap="round"/>
<path d="M18.3333 5.83334L15 5.83334" stroke="black" stroke-width="1.5" stroke-linecap="round"/>
</svg>
