<svg width="256" height="37" viewBox="0 0 256 37" fill="none" xmlns="http://www.w3.org/2000/svg">
<path d="M91.3138 21.398L87.3164 15.7284L80.7585 6.45335H72.8682L82.509 20.1178L87.3164 26.8846L94.0833 36.4732H101.974L91.3138 21.398Z" fill="white"/>
<path d="M56.4342 24.5593C56.4342 25.7612 56.1468 26.8324 55.5982 27.7991C55.0495 28.7658 54.2918 29.5235 53.3251 30.0983C52.3584 30.6731 51.3133 30.9605 50.1376 30.9605C49.0142 30.9605 47.9691 30.6731 47.0547 30.0983C46.1141 29.5235 45.3825 28.7658 44.8339 27.7991C44.2852 26.8324 44.0239 25.7612 44.0239 24.5593V6.40111H37.5444V24.9251C37.5444 27.172 38.0931 29.2099 39.1643 30.9866C40.2616 32.7632 41.7509 34.1741 43.6581 35.193C45.5654 36.212 47.7078 36.7084 50.1376 36.7084C52.5413 36.7084 54.6837 36.212 56.591 35.193C58.4983 34.1741 59.9875 32.7893 61.0848 30.9866C62.1822 29.2099 62.7047 27.172 62.7047 24.9251V6.40111H56.4342V24.5332V24.5593Z" fill="white"/>
<path d="M72.6329 36.4732H80.5233L87.3163 26.8846H79.3476L72.6329 36.4732Z" fill="white"/>
<path d="M12.6455 30.673C10.3464 32.9722 8.80486 34.5137 6.84534 36.4732H26.2315V30.673H12.6455Z" fill="white"/>
<path d="M95.2589 15.7284L101.764 6.45335H94.0832L87.3163 15.7284H95.2589Z" fill="white"/>
<path d="M168.127 6.45335H167.761L172.307 18.6024H172.281L178.97 36.4732H185.58L173.875 6.45335H168.127Z" fill="white"/>
<path d="M229.708 6.45335V36.4732H236.135V18.6024V6.45335H229.708Z" fill="white"/>
<path d="M214.633 21.398C213.745 20.6664 212.647 20.0394 211.393 19.543C210.139 19.0204 208.728 18.6024 207.161 18.2889C206.325 18.106 205.567 17.9231 204.888 17.688C204.208 17.4528 203.607 17.1915 203.137 16.9041C202.641 16.6168 202.275 16.251 202.014 15.8591C201.752 15.4672 201.622 14.9969 201.622 14.4743C201.622 13.9518 201.805 13.2725 202.197 12.8022C202.589 12.3581 203.111 11.9923 203.816 11.7571C204.496 11.522 205.306 11.3914 206.272 11.3914C207.239 11.3914 207.971 11.522 208.781 11.8094C209.591 12.0707 210.348 12.4887 211.054 13.0374C211.759 13.586 212.412 14.2653 213.013 15.0491L217.089 11.104C216.41 9.9805 215.547 9.03993 214.529 8.28225C213.51 7.52457 212.308 6.92365 210.949 6.50562C209.564 6.08759 207.971 5.87857 206.142 5.87857C204.313 5.87857 203.242 6.08759 201.909 6.53174C200.577 6.94978 199.401 7.57682 198.382 8.38676C197.363 9.19669 196.579 10.1373 196.005 11.2346C195.43 12.3319 195.142 13.5338 195.142 14.814C195.142 16.0942 195.325 17.1915 195.717 18.2105C196.109 19.2033 196.684 20.1178 197.494 20.9016C198.304 21.6854 199.297 22.3386 200.498 22.8872C201.7 23.4098 203.111 23.88 204.705 24.2458C205.436 24.3503 206.142 24.5071 206.769 24.69C207.396 24.8729 207.971 25.0819 208.493 25.3432C209.016 25.5783 209.46 25.8657 209.826 26.1531C210.191 26.4405 210.479 26.8063 210.688 27.172C210.897 27.5639 210.975 27.982 210.975 28.4261C210.975 28.8703 210.766 29.6019 210.374 30.046C209.982 30.4902 209.434 30.8559 208.728 31.0911C208.023 31.3262 207.239 31.4569 206.351 31.4569C204.731 31.4569 203.216 31.1172 201.831 30.4118C200.446 29.7064 199.061 28.4 197.651 26.4405L193.627 31.0388C194.568 32.2929 195.639 33.3641 196.814 34.2525C197.99 35.1408 199.349 35.8201 200.89 36.2642C202.432 36.7084 204.104 36.9435 205.959 36.9435C207.814 36.9435 210.244 36.5516 211.968 35.7939C213.692 35.0363 215.025 33.9389 215.992 32.5019C216.958 31.065 217.455 29.3406 217.455 27.3027C217.455 25.2648 217.22 24.9774 216.723 23.9846C216.227 22.9917 215.547 22.1295 214.633 21.4241V21.398Z" fill="white"/>
<path d="M248.624 6.45335V18.6024H236.135L241.701 24.4287H248.624V36.4732H255.051V6.45335H248.624Z" fill="white"/>
<path d="M163.372 18.6024L156.37 36.4732H162.745L169.459 18.6024H163.372Z" fill="white"/>
<path d="M139.492 23.1485C139.387 23.4881 138.969 24.8467 138.551 26.3098L132.751 10.7904H126.141L130.217 20.5619L136.879 36.4732H141.634L150.857 6.47948H144.351L139.492 23.1485Z" fill="white"/>
<path d="M123.79 20.5619L121.647 26.2837C121.203 24.8729 120.759 23.5143 120.654 23.253L115.769 6.47948H109.158L118.277 36.4732H123.215L129.433 20.5619H123.763H123.79Z" fill="white"/>
<path d="M12.6716 30.673C10.5553 32.7893 8.90934 34.4092 6.87144 36.4732H26.2315V30.673H12.6455H12.6716ZM12.6455 6.45335H6.21826V29.3144H12.6455V6.45335Z" fill="white"/>
</svg>
