<svg width="123" height="123" viewBox="0 0 123 123" fill="none" xmlns="http://www.w3.org/2000/svg">
<path d="M109.821 123H13.1786C5.90016 123 0 117.1 0 109.821V13.1786C0 5.90016 5.90016 0 13.1786 0H109.821C117.1 0 123 5.90016 123 13.1786V109.821C123 117.1 117.1 123 109.821 123ZM53.6242 96.0776L104.142 45.5597C105.857 43.8443 105.857 41.0628 104.142 39.3474L97.9297 33.135C96.2143 31.4196 93.4328 31.4194 91.7171 33.135L50.5179 74.334L31.2829 55.0991C29.5675 53.3836 26.786 53.3836 25.0703 55.0991L18.858 61.3114C17.1426 63.0268 17.1426 65.8083 18.858 67.5237L47.4116 96.0773C49.1272 97.7932 51.9085 97.7932 53.6242 96.0776Z" fill="#008AFF"/>
</svg>
