<svg width="64" height="50" viewBox="0 0 64 50" fill="none" xmlns="http://www.w3.org/2000/svg">
<g clip-path="url(#clip0_1_1367)">
<path d="M63.5764 49.9144H0V49.7432H63.5764C63.616 49.7432 63.6481 49.7815 63.6481 49.8288C63.6481 49.8761 63.616 49.9144 63.5764 49.9144Z" fill="#3F3D56"/>
<path d="M15.6944 49.7432H11.7113C11.1159 49.7432 10.6316 49.1648 10.6316 48.4538V34.4925C10.6316 33.7815 11.1159 33.2031 11.7113 33.2031H15.6944C16.2897 33.2031 16.7741 33.7815 16.7741 34.4925V48.4538C16.7741 49.1648 16.2897 49.7432 15.6944 49.7432Z" fill="#3F3D56"/>
<path d="M54.7171 49.7706H50.734C50.1386 49.7706 49.6543 49.1922 49.6543 48.4812V34.5199C49.6543 33.8089 50.1386 33.2305 50.734 33.2305H54.7171C55.3124 33.2305 55.7968 33.8089 55.7968 34.5199V48.4812C55.7968 49.1922 55.3124 49.7706 54.7171 49.7706Z" fill="#3F3D56"/>
<path d="M16.6386 15.0522L10.7732 25.0003C10.0654 26.2008 9.7848 27.6872 9.99278 29.1342L11.7754 41.5366C12.1583 44.2005 14.0925 46.1476 16.3558 46.1476H50.8229C53.2793 46.1476 55.3115 43.8648 55.4616 40.9369L56.1496 27.5187C56.2315 25.9213 55.7319 24.3594 54.7792 23.234L46.5518 13.5152C45.6487 12.4485 44.4193 11.8696 43.1496 11.9133L20.3047 12.6997C18.8405 12.7501 17.4819 13.6219 16.6386 15.0522H16.6386Z" fill="#EFCF22"/>
<path d="M17.5321 16.8182L16.4107 19.3223C15.696 20.918 16.738 22.8024 18.3233 22.7814L46.4006 22.4089C48.1253 22.3861 49.0966 20.1661 48.0651 18.6048L46.2972 15.9286C45.8895 15.3114 45.2431 14.9539 44.5615 14.9686L19.3735 15.5131C18.5925 15.53 17.8842 16.032 17.5321 16.8182H17.5321Z" fill="white"/>
<path d="M52.6783 22.0438C52.4969 22.0438 52.3202 21.9635 52.1846 21.8168C52.0308 21.6507 51.9426 21.4133 51.9426 21.1657L51.9427 20.6152L52.0351 18.0785C52.0523 17.6074 52.3749 17.2384 52.7698 17.2384H55.6927C55.9649 17.2384 56.2135 17.4165 56.3416 17.7033L56.6899 18.4831C56.8 18.7298 56.8062 19.0163 56.7068 19.2693C56.6075 19.5224 56.4191 19.6999 56.19 19.7564L53.9864 20.3009C53.7585 20.3571 53.5789 20.5586 53.5177 20.8269L53.3876 21.3967C53.3079 21.7452 53.0522 22.0035 52.7512 22.0395C52.7269 22.0424 52.7026 22.0438 52.6783 22.0438Z" fill="#EFCF22"/>
<path d="M13.1954 22.0395C12.8944 22.0035 12.6386 21.7452 12.559 21.3967L12.4289 20.8269C12.3677 20.5586 12.1881 20.3571 11.9602 20.3009L9.75661 19.7564C9.52749 19.6999 9.33906 19.5224 9.23974 19.2693C9.14041 19.0163 9.14658 18.7298 9.25667 18.4831L9.60494 17.7033C9.73308 17.4165 9.98173 17.2384 10.2539 17.2384H13.1768C13.5717 17.2384 13.8943 17.6074 13.9115 18.0785L14.0039 20.6152L14.004 21.1657C14.004 21.4133 13.9157 21.6507 13.762 21.8168C13.6263 21.9635 13.4497 22.0438 13.2683 22.0438C13.244 22.0438 13.2197 22.0424 13.1954 22.0395L13.1954 22.0395Z" fill="#EFCF22"/>
<path d="M17.2558 32.9155C18.8522 32.9155 20.1464 31.3701 20.1464 29.4637C20.1464 27.5573 18.8522 26.0118 17.2558 26.0118C15.6594 26.0118 14.3652 27.5573 14.3652 29.4637C14.3652 31.3701 15.6594 32.9155 17.2558 32.9155Z" fill="white"/>
<path d="M50.5576 32.9874C52.154 32.9874 53.4481 31.442 53.4481 29.5356C53.4481 27.6292 52.154 26.0837 50.5576 26.0837C48.9611 26.0837 47.667 27.6292 47.667 29.5356C47.667 31.442 48.9611 32.9874 50.5576 32.9874Z" fill="white"/>
<path d="M13.4082 11.0224C13.6744 11.2003 13.901 11.4518 14.0691 11.7557L15.9672 13.1036L19.1921 14.9074C19.1921 14.9074 19.9527 11.6787 20.8613 11.4725C21.77 11.2663 23.2691 13.6592 23.2691 13.6592C23.2691 13.6592 20.6559 18.712 19.5175 18.194C18.3792 17.6759 15.8357 15.1598 15.8357 15.1598L15.5035 14.8373L13.3903 13.1586C13.0857 13.1364 12.79 13.0275 12.5279 12.8409C11.867 12.385 11.5283 11.6081 11.7713 11.1059C12.0144 10.6036 12.7471 10.5662 13.4082 11.0224V11.0224Z" fill="#A0616A"/>
<path d="M19.6941 12.4238L21.3433 10.1053L22.3397 10.2768C23.5618 10.487 24.2412 12.0789 23.6655 13.3833L23.0914 14.684L19.6941 12.4238Z" fill="#E6E6E6"/>
<path d="M14.3315 15.4592L11.4288 10.6806C11.3858 10.6101 11.3963 10.5112 11.4527 10.4555L12.149 9.76891C12.1792 9.73914 12.2188 9.72603 12.2575 9.73285C12.2962 9.73974 12.331 9.76583 12.3528 9.80487L15.2369 14.9737C15.2606 15.0162 15.2666 15.0684 15.2534 15.1169C15.2401 15.1656 15.2094 15.2036 15.1691 15.2213L14.4916 15.5174C14.4417 15.5392 14.3861 15.5246 14.3484 15.4821C14.3423 15.4752 14.3366 15.4676 14.3315 15.4592Z" fill="#3F3D56"/>
<path d="M14.5623 15.1671L11.5581 10.5169C11.5136 10.4483 11.5166 10.3588 11.5651 10.3133L12.1624 9.75194C12.1883 9.7276 12.224 9.7194 12.2603 9.72935C12.2965 9.73937 12.3304 9.76658 12.3532 9.80439L15.3664 14.8098C15.3912 14.8509 15.4003 14.8992 15.3913 14.9424C15.3823 14.9856 15.3565 15.0174 15.3204 15.0297L14.7141 15.2357C14.6695 15.2509 14.6171 15.2321 14.5794 15.1896C14.5733 15.1827 14.5675 15.1752 14.5623 15.1671H14.5623Z" fill="#E6E6E6"/>
<path d="M13.3634 44.2433L12.0572 47.6093L9.92603 46.4599L11.576 43.9149L13.3634 44.2433Z" fill="#A0616A"/>
<path d="M11.1635 46.542L12.7447 46.2958C12.7447 46.2958 13.8447 49.4155 13.0197 49.5796C12.1948 49.7438 5.73242 50.4827 5.73242 49.4975C5.73242 48.5124 8.41361 47.2809 8.41361 47.2809L10.2698 45.7211L11.1635 46.542Z" fill="#2F2E41"/>
<path d="M23.607 22.5696C23.607 22.5696 25.532 26.0177 21.4071 28.1523L17.0072 35.7052L13.3635 45.1464L11.1636 44.1613L15.0135 29.8763L17.2134 23.4727L18.2446 21.5024L23.607 22.5696Z" fill="#2F2E41"/>
<path d="M8.31161 35.2757L7.43601 38.8352L5.18604 38.0743L6.50314 35.2662L8.31161 35.2757Z" fill="#A0616A"/>
<path d="M6.42001 37.9372L7.95342 37.4148C7.95342 37.4148 9.42716 40.3063 8.63154 40.6142C7.83591 40.9221 1.53583 42.7926 1.41398 41.8182C1.29214 40.8439 3.79162 39.153 3.79162 39.153L5.43455 37.2829L6.42001 37.9372H6.42001Z" fill="#2F2E41"/>
<path d="M19.4134 21.8801L8.84748 24.6182C8.03221 24.8295 7.4001 25.5992 7.23912 26.5767L5.76025 35.557L8.99688 36.8116L10.4505 28.7938L19.831 28.3597L19.4134 21.8801H19.4134Z" fill="#2F2E41"/>
<path d="M22.0699 6.70789L20.7634 9.76418L24.2389 10.4099L24.201 6.30078L22.0699 6.70789Z" fill="#A0616A"/>
<path d="M22.7952 7.96182C24.1314 7.96182 25.2145 6.66836 25.2145 5.0728C25.2145 3.47724 24.1314 2.18378 22.7952 2.18378C21.4591 2.18378 20.376 3.47724 20.376 5.0728C20.376 6.66836 21.4591 7.96182 22.7952 7.96182Z" fill="#A0616A"/>
<path d="M24.3632 23.5548L24.7622 15.8369C25.1074 13.9896 24.9925 12.062 24.4315 10.2917L24.2945 8.44885L21.1321 8.69514L19.7915 11.2812L18.5196 17.3975L18.2446 21.5023L24.3632 23.5548V23.5548Z" fill="#E6E6E6"/>
<path d="M15.1089 17.5831C15.4109 17.5323 15.7188 17.5687 16.0067 17.6891L18.2007 17.3899L21.682 16.4945C21.682 16.4945 20.6508 13.3748 21.2696 12.5538C21.8883 11.7328 24.2945 12.5538 24.2945 12.5538C24.2945 12.5538 24.7757 18.4648 23.607 18.8753C22.4383 19.2858 19.1384 19.1216 19.1384 19.1216L18.7105 19.1051L16.1774 19.2964C15.9238 19.4989 15.6332 19.626 15.33 19.6669C14.5728 19.7818 13.9094 19.4083 13.8483 18.8328C13.7872 18.2573 14.3514 17.6979 15.1089 17.5831V17.5831Z" fill="#A0616A"/>
<path d="M20.8228 14.1547L20.9602 11.1171L21.8402 10.5333C22.9196 9.81719 24.2673 10.5932 24.4702 12.0476L24.6727 13.4979L20.8228 14.1547V14.1547Z" fill="#E6E6E6"/>
<path d="M24.6813 6.84841C24.6813 6.84841 24.9069 5.50141 24.2301 5.41161C23.5533 5.32181 22.8766 3.70541 22.8766 3.70541C22.8766 3.70541 20.5412 3.21897 20.466 4.38637C20.3908 5.55377 20.4197 5.29431 20.4197 5.29431C20.4197 5.29431 19.8645 5.01497 20.0901 3.84757C20.1545 3.51403 20.311 3.20981 20.5018 2.94538C21.1148 2.09553 22.0566 1.69404 22.9897 1.82252C23.3848 1.87693 24.5614 2.32482 24.7886 2.63015C25.3902 3.43835 25.6589 5.95041 24.6813 6.84841V6.84841Z" fill="#3F3D56"/>
<path d="M16.7052 41.0977C16.2807 41.0977 15.9063 40.8326 15.7026 40.3873C15.4978 39.9395 15.5145 39.417 15.7473 38.9892L15.7819 39.016L15.7473 38.9892L16.5019 37.6029C16.7136 37.2141 17.0718 36.9819 17.4601 36.9819H50.2788C50.6134 36.9819 50.93 37.1561 51.1475 37.4598L51.9755 38.6163C52.268 39.0249 52.3334 39.5822 52.1462 40.0709C51.959 40.5597 51.5632 40.8651 51.1132 40.8681L16.712 41.0977H16.7052Z" fill="#3F3D56"/>
<path d="M55.9706 24.3624C56.5743 24.8339 57.2674 24.8442 57.5187 24.3853C57.7699 23.9264 57.4841 23.1723 56.8801 22.7007C56.641 22.5084 56.3668 22.3872 56.0804 22.3474L53.5012 20.388L52.7571 21.853L55.3787 23.629C55.5241 23.9264 55.7271 24.1779 55.9706 24.3624L55.9706 24.3624Z" fill="#FFB6B6"/>
<path d="M48.6348 19.534L54.9622 23.4394L55.5127 21.6316L51.2208 17.6169L50.9351 11.7597C50.9002 11.0445 50.5998 10.3962 50.111 9.9809C49.6222 9.56582 49.0107 9.43963 48.4334 9.63484C47.4058 9.98249 46.7932 11.2682 47.0678 12.5007L48.6348 19.534Z" fill="#E6E6E6"/>
<path d="M50.1632 9.05304L50.459 6.84501L48.4621 5.87347L48.1663 9.22968L50.1632 9.05304Z" fill="#FFB6B6"/>
<path d="M43.8747 21.6171C43.8747 21.6171 43.3015 25.8958 45.5946 26.4092C47.8877 26.9227 53.1189 27.265 53.1189 27.265L59.8549 37.0205L61.2164 35.2234L55.412 24.5266L50.7541 21.0181L43.8747 21.6171Z" fill="#2F2E41"/>
<path d="M44.4221 20.9244C44.4221 20.9244 43.0851 24.9527 45.2304 26.048C47.3756 27.1433 52.42 28.8327 52.42 28.8327L57.2233 40.101L58.8789 38.6995L55.156 26.7537L51.2464 22.1219L44.4221 20.9244V20.9244Z" fill="#2F2E41"/>
<path d="M50.5392 8.69533L47.9594 8.18188L46.2109 9.34407C45.1933 11.1117 45.1092 16.7182 44.869 18.844L43.4448 22.8151L47.9594 22.0449L51.614 21.617L50.3958 12.1183L50.5391 8.69533L50.5392 8.69533Z" fill="#E6E6E6"/>
<path d="M49.6587 7.55481C50.7834 7.55481 51.6951 6.46606 51.6951 5.12302C51.6951 3.77997 50.7834 2.69122 49.6587 2.69122C48.534 2.69122 47.6223 3.77997 47.6223 5.12302C47.6223 6.46606 48.534 7.55481 49.6587 7.55481Z" fill="#FFB6B6"/>
<path d="M49.4961 1.85364C49.555 1.89472 49.634 1.83257 49.6529 1.75428C49.6717 1.67599 49.6497 1.59286 49.6279 1.51567C49.5913 1.38613 49.5547 1.25659 49.518 1.12705C49.4401 0.851428 49.3574 0.566179 49.1886 0.356398C48.9339 0.039767 48.5291 -0.0407822 48.1647 0.0175727C47.6967 0.0925122 47.235 0.395125 47.0174 0.895534C46.7998 1.39594 46.8924 2.09419 47.2856 2.4064C46.7252 3.1734 46.5299 4.02819 46.5607 5.04541C46.5916 6.06263 47.5198 6.99881 48.1252 7.7154C48.2604 7.61754 48.3833 7.15892 48.309 6.99231C48.2346 6.8257 48.3411 6.63269 48.2491 6.47922C48.157 6.32576 48.08 6.57012 48.173 6.41753C48.2318 6.32124 48.0025 6.09972 48.0898 6.04209C48.5121 5.76335 48.6526 5.13479 48.9178 4.65345C49.2377 4.07287 49.7852 3.6797 50.3646 3.61447C50.6838 3.57854 51.0209 3.64362 51.2826 3.8649C51.5442 4.08618 51.7135 4.48161 51.6529 4.85754C51.81 4.66703 51.8882 4.38784 51.8587 4.12278C51.8292 3.85772 51.6926 3.61261 51.4993 3.47773C51.6169 3.0135 51.5162 2.4795 51.2433 2.12026C50.9705 1.76102 49.8636 1.82221 49.4653 1.91675" fill="#2F2E41"/>
<path d="M49.4343 3.62854C48.9067 3.69655 48.5257 4.2423 48.2041 4.74629C48.0187 5.03679 47.8245 5.35759 47.8291 5.72279C47.8338 6.09202 48.0406 6.40871 48.1394 6.75863C48.3008 7.33058 48.1434 8.01107 47.759 8.40297C48.1389 8.48905 48.5495 8.14894 48.6151 7.69393C48.6914 7.16425 48.3552 6.65302 48.395 6.11766C48.4301 5.646 48.7413 5.283 49.0059 4.93034C49.2705 4.57768 49.5191 4.10971 49.3973 3.65906" fill="#2F2E41"/>
<path d="M54.3522 24.8198C54.9559 25.2913 55.649 25.3016 55.9003 24.8427C56.1515 24.3838 55.8657 23.6297 55.2617 23.1581C55.0226 22.9658 54.7484 22.8446 54.462 22.8048L51.8828 20.8454L51.1387 22.3104L53.7603 24.0864C53.9057 24.3838 54.1087 24.6353 54.3522 24.8198V24.8198Z" fill="#FFB6B6"/>
<path d="M47.0164 19.9914L53.3438 23.8968L53.8943 22.089L49.6024 18.0743L49.3167 12.2171C49.2818 11.5019 48.9814 10.8536 48.4926 10.4383C48.0038 10.0232 47.3923 9.89702 46.815 10.0922C45.7874 10.4399 45.1748 11.7256 45.4494 12.9581L47.0164 19.9914Z" fill="#E6E6E6"/>
<path d="M57.4513 38.5892L57.5977 38.6892C57.5977 38.6892 58.601 38.0046 59.1026 38.6892C59.6042 39.3737 59.9625 41.0852 59.9625 41.0852C59.9625 41.0852 62.0406 43.139 60.8224 43.139C59.9054 43.139 57.7296 41.9267 56.7097 41.3273C56.3842 41.136 56.2326 40.6813 56.3592 40.2753C56.4648 39.9368 56.6013 39.5816 56.7378 39.4593C56.8811 39.331 56.9707 39.0528 57.0244 38.8068C57.0731 38.5839 57.2838 38.4749 57.4513 38.5892Z" fill="#2F2E41"/>
<path d="M60.246 35.3374L60.3924 35.4373C60.3924 35.4373 61.3956 34.7527 61.8973 35.4373C62.3989 36.1219 62.7572 37.8334 62.7572 37.8334C62.7572 37.8334 64.8353 39.8872 63.6171 39.8872C62.7001 39.8872 60.5242 38.6749 59.5044 38.0755C59.1789 37.8841 59.0273 37.4295 59.1539 37.0234C59.2595 36.6849 59.396 36.3298 59.5325 36.2075C59.6758 36.0791 59.7654 35.801 59.8191 35.555C59.8678 35.3321 60.0785 35.2231 60.246 35.3374Z" fill="#2F2E41"/>
</g>
<defs>
<clipPath id="clip0_1_1367">
<rect width="64" height="50" fill="white"/>
</clipPath>
</defs>
</svg>
